<svg width="17" height="24" viewBox="0 0 17 24" fill="none" xmlns="http://www.w3.org/2000/svg">
<path d="M8.4 22.4684C8.24107 22.2787 8.06095 22.061 7.86396 21.8183C7.08934 20.8638 6.05816 19.5286 5.02896 18.0032C3.99785 16.4749 2.98106 14.7739 2.2251 13.0865C1.46327 11.386 1 9.77266 1 8.4C1 4.30828 4.30828 1 8.4 1C12.4917 1 15.8 4.30828 15.8 8.4C15.8 9.77266 15.3367 11.386 14.5749 13.0865C13.8189 14.7739 12.8022 16.4749 11.771 18.0032C10.7418 19.5286 9.71066 20.8638 8.93604 21.8183C8.73905 22.061 8.55893 22.2787 8.4 22.4684ZM4.4 8.4C4.4 10.6083 6.19171 12.4 8.4 12.4C10.6083 12.4 12.4 10.6083 12.4 8.4C12.4 6.19172 10.6083 4.4 8.4 4.4C6.19171 4.4 4.4 6.19172 4.4 8.4Z" stroke="#4C34E4" stroke-width="2"/>
</svg>
