<svg width="103" height="24" viewBox="0 0 103 24" fill="none" xmlns="http://www.w3.org/2000/svg">
<path d="M46.0494 5.90039V0.0900734L40.5836 0.798495V5.90004H38.4563V10.7082H40.5836V23.8112H46.0494V10.7082H50.0124V5.90039H46.0494ZM16.1766 14.5242C17.8418 13.1812 18.9102 11.3434 18.9102 9.0367V8.03314C18.9102 3.98265 15.6269 1.00648 11.5783 1.00648L0 0.961329L0.00678473 23.6909L5.47576 23.734V16.0193H11.097L14.7613 23.734H21.1618L16.1766 14.5242ZM13.322 8.76087C13.322 10.3744 12.0137 11.2895 10.4009 11.2895H5.47576V5.83079H10.4009C12.0137 5.83079 13.322 6.96384 13.322 8.57733V8.76087ZM77.6137 5.80541H74.7217V0L69.3744 0.708188L69.3735 23.7341H77.6137C81.6636 23.7341 84.9459 20.6248 84.9459 16.5762V13.1382C84.9459 9.08841 81.6636 5.80541 77.6137 5.80541ZM79.7063 16.1157C79.7063 17.821 78.5552 18.8328 76.8502 18.8328H74.7392V10.7104H76.8503C78.5554 10.7104 79.7064 11.7231 79.7064 13.4282L79.7063 16.1157ZM61.7015 5.90039V16.2441C61.7015 17.9492 61.0812 19.1007 59.3762 19.1007H59.2913C57.5872 19.1007 56.9657 17.9488 56.9657 16.2441V5.90039H51.5707V16.6387C51.5707 20.6885 53.3429 23.972 58.7293 23.972H59.7639C65.4368 23.972 67.0977 20.6885 67.0977 16.6387V5.90039H61.7015ZM31.2922 5.90039V16.2441C31.2922 17.9492 30.6716 19.1007 28.9667 19.1007H28.8821C27.178 19.1007 26.5568 17.9488 26.5568 16.2441V5.90039H21.1615V16.6387C21.1615 20.6885 22.933 23.972 28.3191 23.972H29.3547C35.026 23.972 36.6878 20.6885 36.6878 16.6387V5.90039H31.2922ZM98.6323 17.729C98.6323 17.729 97.0535 19.6638 94.2788 19.4468C92.5495 19.3116 91.5248 18.4335 91.5248 16.7287V16.1345H102.109V13.0651C102.109 9.1152 99.2147 5.651 94.2927 5.651C89.3715 5.651 86.4706 8.94125 86.4706 12.8915V16.5839C86.4706 20.5354 89.3657 24 94.2869 24C99.8501 24 102.228 20.1201 102.228 20.1201L98.6323 17.729ZM91.5244 12.0546C91.5244 10.3898 92.5857 9.38729 94.1652 9.3412H94.301C95.9455 9.3412 97.055 10.3539 97.055 12.0584V12.2085H91.5242V12.0546H91.5244Z" fill="#4C34E4"/>
</svg>
