<svg width="24" height="24" viewBox="0 0 24 24" fill="none" xmlns="http://www.w3.org/2000/svg">
<path d="M15.4855 0H8.21076C1.5758 0 0 1.596 0 8.316V15.684C0 22.404 1.5758 24 8.21076 24H15.4855C22.1205 24 23.6963 22.404 23.6963 15.684V8.316C23.6963 1.596 22.1205 0 15.4855 0ZM19.1347 17.124H17.4049C16.7533 17.124 16.5518 16.584 15.4026 15.396C14.3599 14.4 13.9097 14.256 13.6609 14.256C13.3173 14.256 13.2107 14.352 13.2107 14.856V16.428C13.2107 16.848 13.0803 17.112 11.9785 17.112C10.1539 17.112 8.12782 15.984 6.70605 13.908C4.56153 10.86 3.98097 8.556 3.98097 8.1C3.98097 7.848 4.06391 7.608 4.56153 7.608H6.30321C6.74159 7.608 6.90746 7.8 7.07334 8.28C7.9264 10.8 9.34818 12.96 9.92874 12.96C10.1539 12.96 10.2486 12.852 10.2486 12.3V9.72C10.1894 8.544 9.56145 8.436 9.56145 8.016C9.56145 7.8 9.72732 7.608 9.99983 7.608H12.7131C13.0803 7.608 13.2107 7.8 13.2107 8.256V11.724C13.2107 12.096 13.3647 12.228 13.4832 12.228C13.6964 12.228 13.886 12.096 14.277 11.688C15.5211 10.284 16.4097 8.112 16.4097 8.112C16.5282 7.86 16.7177 7.62 17.1798 7.62H18.8741C19.3954 7.62 19.5139 7.896 19.3954 8.268C19.1821 9.288 17.0732 12.3 17.0969 12.3C16.9073 12.6 16.8362 12.732 17.0969 13.08C17.2746 13.332 17.8788 13.86 18.2817 14.328C19.0163 15.18 19.585 15.888 19.739 16.38C19.8693 16.872 19.6324 17.124 19.1347 17.124Z" fill="#4C34E4"/>
</svg>
